<mxfile host="65bd71144e">
    <diagram id="lLU1DgdqLRJgnwdahz-z" name="Page-1">
        <mxGraphModel dx="573" dy="597" grid="1" gridSize="10" guides="1" tooltips="1" connect="1" arrows="1" fold="1" page="1" pageScale="1" pageWidth="827" pageHeight="1169" math="0" shadow="0">
            <root>
                <mxCell id="0"/>
                <mxCell id="1" parent="0"/>
                <mxCell id="2" value="User&lt;br&gt;" style="swimlane;fontStyle=0;align=center;verticalAlign=top;childLayout=stackLayout;horizontal=1;startSize=40;horizontalStack=0;resizeParent=1;resizeParentMax=0;resizeLast=0;collapsible=0;marginBottom=0;html=1;" parent="1" vertex="1">
                    <mxGeometry x="50" y="90" width="330" height="190" as="geometry"/>
                </mxCell>
                <mxCell id="3" value="user_id: string" style="text;html=1;strokeColor=none;fillColor=none;align=left;verticalAlign=middle;spacingLeft=4;spacingRight=4;overflow=hidden;rotatable=0;points=[[0,0.5],[1,0.5]];portConstraint=eastwest;" parent="2" vertex="1">
                    <mxGeometry y="40" width="330" height="30" as="geometry"/>
                </mxCell>
                <mxCell id="6" value="menu: JSON (IFood[])" style="text;html=1;strokeColor=none;fillColor=none;align=left;verticalAlign=middle;spacingLeft=4;spacingRight=4;overflow=hidden;rotatable=0;points=[[0,0.5],[1,0.5]];portConstraint=eastwest;" parent="2" vertex="1">
                    <mxGeometry y="70" width="330" height="30" as="geometry"/>
                </mxCell>
                <mxCell id="7" value="renew_date: string" style="text;html=1;strokeColor=none;fillColor=none;align=left;verticalAlign=middle;spacingLeft=4;spacingRight=4;overflow=hidden;rotatable=0;points=[[0,0.5],[1,0.5]];portConstraint=eastwest;" parent="2" vertex="1">
                    <mxGeometry y="100" width="330" height="30" as="geometry"/>
                </mxCell>
                <mxCell id="8" value="category_quantity: JSON (ICategoryQuantiy)" style="text;html=1;strokeColor=none;fillColor=none;align=left;verticalAlign=middle;spacingLeft=4;spacingRight=4;overflow=hidden;rotatable=0;points=[[0,0.5],[1,0.5]];portConstraint=eastwest;" parent="2" vertex="1">
                    <mxGeometry y="130" width="330" height="30" as="geometry"/>
                </mxCell>
                <mxCell id="9" value="to_buy_list: JSON (ToBuyIngredient[])" style="text;html=1;strokeColor=none;fillColor=none;align=left;verticalAlign=middle;spacingLeft=4;spacingRight=4;overflow=hidden;rotatable=0;points=[[0,0.5],[1,0.5]];portConstraint=eastwest;" parent="2" vertex="1">
                    <mxGeometry y="160" width="330" height="30" as="geometry"/>
                </mxCell>
                <mxCell id="10" value="Food" style="swimlane;fontStyle=0;align=center;verticalAlign=top;childLayout=stackLayout;horizontal=1;startSize=40;horizontalStack=0;resizeParent=1;resizeParentMax=0;resizeLast=0;collapsible=0;marginBottom=0;html=1;" parent="1" vertex="1">
                    <mxGeometry x="50" y="330" width="210" height="190" as="geometry"/>
                </mxCell>
                <mxCell id="11" value="food_id: string" style="text;html=1;strokeColor=none;fillColor=none;align=left;verticalAlign=middle;spacingLeft=4;spacingRight=4;overflow=hidden;rotatable=0;points=[[0,0.5],[1,0.5]];portConstraint=eastwest;" parent="10" vertex="1">
                    <mxGeometry y="40" width="210" height="30" as="geometry"/>
                </mxCell>
                <mxCell id="12" value="food_name: string" style="text;html=1;strokeColor=none;fillColor=none;align=left;verticalAlign=middle;spacingLeft=4;spacingRight=4;overflow=hidden;rotatable=0;points=[[0,0.5],[1,0.5]];portConstraint=eastwest;" parent="10" vertex="1">
                    <mxGeometry y="70" width="210" height="30" as="geometry"/>
                </mxCell>
                <mxCell id="13" value="food_category: string" style="text;html=1;strokeColor=none;fillColor=none;align=left;verticalAlign=middle;spacingLeft=4;spacingRight=4;overflow=hidden;rotatable=0;points=[[0,0.5],[1,0.5]];portConstraint=eastwest;" parent="10" vertex="1">
                    <mxGeometry y="100" width="210" height="30" as="geometry"/>
                </mxCell>
                <mxCell id="14" value="img_url: string" style="text;html=1;strokeColor=none;fillColor=none;align=left;verticalAlign=middle;spacingLeft=4;spacingRight=4;overflow=hidden;rotatable=0;points=[[0,0.5],[1,0.5]];portConstraint=eastwest;" parent="10" vertex="1">
                    <mxGeometry y="130" width="210" height="30" as="geometry"/>
                </mxCell>
                <mxCell id="15" value="food_ingredients: IFoodIngredient[]" style="text;html=1;strokeColor=none;fillColor=none;align=left;verticalAlign=middle;spacingLeft=4;spacingRight=4;overflow=hidden;rotatable=0;points=[[0,0.5],[1,0.5]];portConstraint=eastwest;" parent="10" vertex="1">
                    <mxGeometry y="160" width="210" height="30" as="geometry"/>
                </mxCell>
                <mxCell id="16" value="Ingredient" style="swimlane;fontStyle=0;align=center;verticalAlign=top;childLayout=stackLayout;horizontal=1;startSize=40;horizontalStack=0;resizeParent=1;resizeParentMax=0;resizeLast=0;collapsible=0;marginBottom=0;html=1;" parent="1" vertex="1">
                    <mxGeometry x="510" y="105" width="400" height="160" as="geometry"/>
                </mxCell>
                <mxCell id="17" value="ingredient_id: string" style="text;html=1;strokeColor=none;fillColor=none;align=left;verticalAlign=middle;spacingLeft=4;spacingRight=4;overflow=hidden;rotatable=0;points=[[0,0.5],[1,0.5]];portConstraint=eastwest;" parent="16" vertex="1">
                    <mxGeometry y="40" width="400" height="30" as="geometry"/>
                </mxCell>
                <mxCell id="18" value="ingredient_category: string (IIngredientCategory)" style="text;html=1;strokeColor=none;fillColor=none;align=left;verticalAlign=middle;spacingLeft=4;spacingRight=4;overflow=hidden;rotatable=0;points=[[0,0.5],[1,0.5]];portConstraint=eastwest;" parent="16" vertex="1">
                    <mxGeometry y="70" width="400" height="30" as="geometry"/>
                </mxCell>
                <mxCell id="19" value="ingredient_name: string" style="text;html=1;strokeColor=none;fillColor=none;align=left;verticalAlign=middle;spacingLeft=4;spacingRight=4;overflow=hidden;rotatable=0;points=[[0,0.5],[1,0.5]];portConstraint=eastwest;" parent="16" vertex="1">
                    <mxGeometry y="100" width="400" height="30" as="geometry"/>
                </mxCell>
                <mxCell id="20" value="ingredient_unit: string (Unit)" style="text;html=1;strokeColor=none;fillColor=none;align=left;verticalAlign=middle;spacingLeft=4;spacingRight=4;overflow=hidden;rotatable=0;points=[[0,0.5],[1,0.5]];portConstraint=eastwest;" parent="16" vertex="1">
                    <mxGeometry y="130" width="400" height="30" as="geometry"/>
                </mxCell>
                <mxCell id="22" value="&lt;div style=&quot;color: rgb(200 , 211 , 245) ; background-color: rgb(34 , 36 , 54) ; font-family: &amp;#34;consolas&amp;#34; , &amp;#34;courier new&amp;#34; , monospace ; font-weight: normal ; font-size: 12.6px ; line-height: 16px&quot;&gt;&lt;div&gt;&lt;span style=&quot;color: #86e1fc&quot;&gt;export&lt;/span&gt;&lt;span style=&quot;color: #c8d3f5&quot;&gt; &lt;/span&gt;&lt;span style=&quot;color: #c099ff&quot;&gt;type&lt;/span&gt;&lt;span style=&quot;color: #c8d3f5&quot;&gt; &lt;/span&gt;&lt;span style=&quot;color: #ffc777&quot;&gt;IIngredientCategory&lt;/span&gt;&lt;span style=&quot;color: #c8d3f5&quot;&gt; &lt;/span&gt;&lt;span style=&quot;color: #86e1fc&quot;&gt;=&lt;/span&gt;&lt;span style=&quot;color: #c8d3f5&quot;&gt; &lt;/span&gt;&lt;span style=&quot;color: #86e1fc&quot;&gt;'&lt;/span&gt;&lt;span style=&quot;color: #c3e88d&quot;&gt;Thịt&lt;/span&gt;&lt;span style=&quot;color: #86e1fc&quot;&gt;'&lt;/span&gt;&lt;span style=&quot;color: #c8d3f5&quot;&gt; &lt;/span&gt;&lt;span style=&quot;color: #86e1fc&quot;&gt;|&lt;/span&gt;&lt;span style=&quot;color: #c8d3f5&quot;&gt; &lt;/span&gt;&lt;span style=&quot;color: #86e1fc&quot;&gt;'&lt;/span&gt;&lt;span style=&quot;color: #c3e88d&quot;&gt;Hải sản&lt;/span&gt;&lt;span style=&quot;color: #86e1fc&quot;&gt;'&lt;/span&gt;&lt;span style=&quot;color: #c8d3f5&quot;&gt; &lt;/span&gt;&lt;span style=&quot;color: #86e1fc&quot;&gt;|&lt;/span&gt;&lt;span style=&quot;color: #c8d3f5&quot;&gt; &lt;/span&gt;&lt;span style=&quot;color: #86e1fc&quot;&gt;'&lt;/span&gt;&lt;span style=&quot;color: #c3e88d&quot;&gt;Rau cải&lt;/span&gt;&lt;span style=&quot;color: #86e1fc&quot;&gt;'&lt;/span&gt;&lt;span style=&quot;color: #c8d3f5&quot;&gt; &lt;/span&gt;&lt;span style=&quot;color: #86e1fc&quot;&gt;|&lt;/span&gt;&lt;span style=&quot;color: #c8d3f5&quot;&gt; &lt;/span&gt;&lt;span style=&quot;color: #86e1fc&quot;&gt;'&lt;/span&gt;&lt;span style=&quot;color: #c3e88d&quot;&gt;Trái cây&lt;/span&gt;&lt;span style=&quot;color: #86e1fc&quot;&gt;'&lt;/span&gt;&lt;span style=&quot;color: #c8d3f5&quot;&gt; &lt;/span&gt;&lt;span style=&quot;color: #86e1fc&quot;&gt;|&lt;/span&gt;&lt;span style=&quot;color: #c8d3f5&quot;&gt; &lt;/span&gt;&lt;span style=&quot;color: #86e1fc&quot;&gt;'&lt;/span&gt;&lt;span style=&quot;color: #c3e88d&quot;&gt;Hành&lt;/span&gt;&lt;span style=&quot;color: #86e1fc&quot;&gt;'&lt;/span&gt;&lt;span style=&quot;color: #c8d3f5&quot;&gt; &lt;/span&gt;&lt;span style=&quot;color: #86e1fc&quot;&gt;|&lt;/span&gt;&lt;span style=&quot;color: #c8d3f5&quot;&gt; &lt;/span&gt;&lt;span style=&quot;color: #86e1fc&quot;&gt;'&lt;/span&gt;&lt;span style=&quot;color: #c3e88d&quot;&gt;Gia vị&lt;/span&gt;&lt;span style=&quot;color: #86e1fc&quot;&gt;'&lt;/span&gt;&lt;span style=&quot;color: #c8d3f5&quot;&gt;&amp;nbsp;&lt;/span&gt;&lt;span style=&quot;color: #86e1fc&quot;&gt;|&lt;/span&gt;&lt;span style=&quot;color: #c8d3f5&quot;&gt; &lt;/span&gt;&lt;span style=&quot;color: #86e1fc&quot;&gt;'&lt;/span&gt;&lt;span style=&quot;color: #c3e88d&quot;&gt;Củ&lt;/span&gt;&lt;span style=&quot;color: #86e1fc&quot;&gt;'&lt;/span&gt;&lt;span style=&quot;color: #c8d3f5&quot;&gt; &lt;/span&gt;&lt;span style=&quot;color: #86e1fc&quot;&gt;|&lt;/span&gt;&lt;span style=&quot;color: #c8d3f5&quot;&gt; &lt;/span&gt;&lt;span style=&quot;color: #86e1fc&quot;&gt;'&lt;/span&gt;&lt;span style=&quot;color: #c3e88d&quot;&gt;Quả&lt;/span&gt;&lt;span style=&quot;color: #86e1fc&quot;&gt;'&lt;/span&gt;&lt;span style=&quot;color: #c8d3f5&quot;&gt; &lt;/span&gt;&lt;span style=&quot;color: #86e1fc&quot;&gt;|&lt;/span&gt;&lt;span style=&quot;color: #c8d3f5&quot;&gt; &lt;/span&gt;&lt;span style=&quot;color: #86e1fc&quot;&gt;'&lt;/span&gt;&lt;span style=&quot;color: #c3e88d&quot;&gt;Nấm&lt;/span&gt;&lt;span style=&quot;color: #86e1fc&quot;&gt;'&lt;/span&gt;&lt;span style=&quot;color: #c8d3f5&quot;&gt; &lt;/span&gt;&lt;span style=&quot;color: #86e1fc&quot;&gt;|&lt;/span&gt;&lt;span style=&quot;color: #c8d3f5&quot;&gt; &lt;/span&gt;&lt;span style=&quot;color: #86e1fc&quot;&gt;'&lt;/span&gt;&lt;span style=&quot;color: #c3e88d&quot;&gt;Rau&lt;/span&gt;&lt;span style=&quot;color: #86e1fc&quot;&gt;'&lt;/span&gt;&lt;span style=&quot;color: #c8d3f5&quot;&gt; &lt;/span&gt;&lt;span style=&quot;color: #86e1fc&quot;&gt;|&lt;/span&gt;&lt;span style=&quot;color: #c8d3f5&quot;&gt; &lt;/span&gt;&lt;span style=&quot;color: #86e1fc&quot;&gt;'&lt;/span&gt;&lt;span style=&quot;color: #c3e88d&quot;&gt;Gạo&lt;/span&gt;&lt;span style=&quot;color: #86e1fc&quot;&gt;'&lt;/span&gt;&lt;span style=&quot;color: #c8d3f5&quot;&gt; &lt;/span&gt;&lt;span style=&quot;color: #86e1fc&quot;&gt;|&lt;/span&gt;&lt;span style=&quot;color: #c8d3f5&quot;&gt; &lt;/span&gt;&lt;span style=&quot;color: #86e1fc&quot;&gt;&quot;&quot;&lt;/span&gt;&lt;/div&gt;&lt;div&gt;&lt;span style=&quot;color: #86e1fc&quot;&gt;export&lt;/span&gt;&lt;span style=&quot;color: #c8d3f5&quot;&gt; &lt;/span&gt;&lt;span style=&quot;color: #c099ff&quot;&gt;type&lt;/span&gt;&lt;span style=&quot;color: #c8d3f5&quot;&gt; &lt;/span&gt;&lt;span style=&quot;color: #ffc777&quot;&gt;IUnit&lt;/span&gt;&lt;span style=&quot;color: #c8d3f5&quot;&gt; &lt;/span&gt;&lt;span style=&quot;color: #86e1fc&quot;&gt;=&lt;/span&gt;&lt;span style=&quot;color: #c8d3f5&quot;&gt; &lt;/span&gt;&lt;span style=&quot;color: #86e1fc&quot;&gt;'&lt;/span&gt;&lt;span style=&quot;color: #c3e88d&quot;&gt;kg&lt;/span&gt;&lt;span style=&quot;color: #86e1fc&quot;&gt;'&lt;/span&gt;&lt;span style=&quot;color: #c8d3f5&quot;&gt; &lt;/span&gt;&lt;span style=&quot;color: #86e1fc&quot;&gt;|&lt;/span&gt;&lt;span style=&quot;color: #c8d3f5&quot;&gt; &lt;/span&gt;&lt;span style=&quot;color: #86e1fc&quot;&gt;'&lt;/span&gt;&lt;span style=&quot;color: #c3e88d&quot;&gt;gram&lt;/span&gt;&lt;span style=&quot;color: #86e1fc&quot;&gt;'&lt;/span&gt;&lt;span style=&quot;color: #c8d3f5&quot;&gt; &lt;/span&gt;&lt;span style=&quot;color: #86e1fc&quot;&gt;|&lt;/span&gt;&lt;span style=&quot;color: #c8d3f5&quot;&gt; &lt;/span&gt;&lt;span style=&quot;color: #86e1fc&quot;&gt;'&lt;/span&gt;&lt;span style=&quot;color: #c3e88d&quot;&gt;củ&lt;/span&gt;&lt;span style=&quot;color: #86e1fc&quot;&gt;'&lt;/span&gt;&lt;span style=&quot;color: #c8d3f5&quot;&gt; &lt;/span&gt;&lt;span style=&quot;color: #86e1fc&quot;&gt;|&lt;/span&gt;&lt;span style=&quot;color: #c8d3f5&quot;&gt; &lt;/span&gt;&lt;span style=&quot;color: #86e1fc&quot;&gt;'&lt;/span&gt;&lt;span style=&quot;color: #c3e88d&quot;&gt;con&lt;/span&gt;&lt;span style=&quot;color: #86e1fc&quot;&gt;'&lt;/span&gt;&lt;span style=&quot;color: #c8d3f5&quot;&gt; &lt;/span&gt;&lt;span style=&quot;color: #86e1fc&quot;&gt;|&lt;/span&gt;&lt;span style=&quot;color: #86e1fc&quot;&gt;'&lt;/span&gt;&lt;span style=&quot;color: #c3e88d&quot;&gt;lon&lt;/span&gt;&lt;span style=&quot;color: #86e1fc&quot;&gt;'&lt;/span&gt;&lt;span style=&quot;color: #c8d3f5&quot;&gt; &lt;/span&gt;&lt;span style=&quot;color: #86e1fc&quot;&gt;|&lt;/span&gt;&lt;span style=&quot;color: #c8d3f5&quot;&gt; &lt;/span&gt;&lt;span style=&quot;color: #86e1fc&quot;&gt;'&lt;/span&gt;&lt;span style=&quot;color: #c3e88d&quot;&gt;trái&lt;/span&gt;&lt;span style=&quot;color: #86e1fc&quot;&gt;'&lt;/span&gt;&lt;span style=&quot;color: #c8d3f5&quot;&gt; &lt;/span&gt;&lt;span style=&quot;color: #86e1fc&quot;&gt;|&lt;/span&gt;&lt;span style=&quot;color: #c8d3f5&quot;&gt; &lt;/span&gt;&lt;span style=&quot;color: #86e1fc&quot;&gt;'&lt;/span&gt;&lt;span style=&quot;color: #c3e88d&quot;&gt;bó&lt;/span&gt;&lt;span style=&quot;color: #86e1fc&quot;&gt;'&lt;/span&gt;&lt;span style=&quot;color: #c8d3f5&quot;&gt; &lt;/span&gt;&lt;span style=&quot;color: #86e1fc&quot;&gt;|&lt;/span&gt;&lt;span style=&quot;color: #c8d3f5&quot;&gt; &lt;/span&gt;&lt;span style=&quot;color: #86e1fc&quot;&gt;'&lt;/span&gt;&lt;span style=&quot;color: #c3e88d&quot;&gt;gói&lt;/span&gt;&lt;span style=&quot;color: #86e1fc&quot;&gt;'&lt;/span&gt;&lt;span style=&quot;color: #c8d3f5&quot;&gt; &lt;/span&gt;&lt;span style=&quot;color: #86e1fc&quot;&gt;|&lt;/span&gt;&lt;span style=&quot;color: #c8d3f5&quot;&gt; &lt;/span&gt;&lt;span style=&quot;color: #86e1fc&quot;&gt;'&lt;/span&gt;&lt;span style=&quot;color: #c3e88d&quot;&gt;bịch&lt;/span&gt;&lt;span style=&quot;color: #86e1fc&quot;&gt;'&lt;/span&gt;&lt;span style=&quot;color: #c8d3f5&quot;&gt; &lt;/span&gt;&lt;span style=&quot;color: #86e1fc&quot;&gt;|&lt;/span&gt;&lt;span style=&quot;color: #c8d3f5&quot;&gt; &lt;/span&gt;&lt;span style=&quot;color: #86e1fc&quot;&gt;'&lt;/span&gt;&lt;span style=&quot;color: #c3e88d&quot;&gt;chai&lt;/span&gt;&lt;span style=&quot;color: #86e1fc&quot;&gt;'&lt;/span&gt;&lt;span style=&quot;color: #c8d3f5&quot;&gt; &lt;/span&gt;&lt;span style=&quot;color: #86e1fc&quot;&gt;|&lt;/span&gt;&lt;span style=&quot;color: #c8d3f5&quot;&gt; &lt;/span&gt;&lt;span style=&quot;color: #86e1fc&quot;&gt;'&lt;/span&gt;&lt;span style=&quot;color: #c3e88d&quot;&gt;bông&lt;/span&gt;&lt;span style=&quot;color: #86e1fc&quot;&gt;'&lt;/span&gt;&lt;span style=&quot;color: #c8d3f5&quot;&gt; &lt;/span&gt;&lt;span style=&quot;color: #86e1fc&quot;&gt;|&lt;/span&gt;&lt;span style=&quot;color: #c8d3f5&quot;&gt; &lt;/span&gt;&lt;span style=&quot;color: #86e1fc&quot;&gt;'&lt;/span&gt;&lt;span style=&quot;color: #c3e88d&quot;&gt;hộp&lt;/span&gt;&lt;span style=&quot;color: #86e1fc&quot;&gt;'&lt;/span&gt;&lt;span style=&quot;color: #c8d3f5&quot;&gt; &lt;/span&gt;&lt;span style=&quot;color: #86e1fc&quot;&gt;|&lt;/span&gt;&lt;span style=&quot;color: #c8d3f5&quot;&gt; &lt;/span&gt;&lt;span style=&quot;color: #ff966c&quot;&gt;null&lt;/span&gt;&lt;/div&gt;&lt;/div&gt;" style="text;whiteSpace=wrap;html=1;" parent="1" vertex="1">
                    <mxGeometry x="510" y="280" width="760" height="80" as="geometry"/>
                </mxCell>
                <mxCell id="23" value="&lt;div style=&quot;color: rgb(200, 211, 245); background-color: rgb(34, 36, 54); font-family: consolas, &amp;quot;courier new&amp;quot;, monospace; font-weight: normal; font-size: 12.6px; line-height: 16px;&quot;&gt;&lt;div&gt;&lt;span style=&quot;color: #86e1fc&quot;&gt;export&lt;/span&gt;&lt;span style=&quot;color: #c8d3f5&quot;&gt; &lt;/span&gt;&lt;span style=&quot;color: #c099ff&quot;&gt;type&lt;/span&gt;&lt;span style=&quot;color: #c8d3f5&quot;&gt; &lt;/span&gt;&lt;span style=&quot;color: #ffc777&quot;&gt;IFoodIngredient&lt;/span&gt;&lt;span style=&quot;color: #c8d3f5&quot;&gt; &lt;/span&gt;&lt;span style=&quot;color: #86e1fc&quot;&gt;=&lt;/span&gt;&lt;span style=&quot;color: #c8d3f5&quot;&gt; &lt;/span&gt;&lt;span style=&quot;color: #b4c2f0&quot;&gt;{&lt;/span&gt;&lt;/div&gt;&lt;div&gt;&lt;span style=&quot;color: #c8d3f5&quot;&gt;&amp;nbsp; &amp;nbsp; &lt;/span&gt;&lt;span style=&quot;color: #4fd6be&quot;&gt;id&lt;/span&gt;&lt;span style=&quot;color: #86e1fc&quot;&gt;:&lt;/span&gt;&lt;span style=&quot;color: #c8d3f5&quot;&gt; &lt;/span&gt;&lt;span style=&quot;color: #ff966c&quot;&gt;string&lt;/span&gt;&lt;/div&gt;&lt;div&gt;&lt;span style=&quot;color: #c8d3f5&quot;&gt;&amp;nbsp; &amp;nbsp; &lt;/span&gt;&lt;span style=&quot;color: #4fd6be&quot;&gt;quantity&lt;/span&gt;&lt;span style=&quot;color: #86e1fc&quot;&gt;:&lt;/span&gt;&lt;span style=&quot;color: #c8d3f5&quot;&gt; &lt;/span&gt;&lt;span style=&quot;color: #ff966c&quot;&gt;number&lt;/span&gt;&lt;/div&gt;&lt;div&gt;&lt;span style=&quot;color: #b4c2f0&quot;&gt;}&lt;/span&gt;&lt;/div&gt;&lt;/div&gt;" style="text;whiteSpace=wrap;html=1;" parent="1" vertex="1">
                    <mxGeometry x="50" y="530" width="220" height="80" as="geometry"/>
                </mxCell>
                <mxCell id="24" value="Text" style="text;html=1;strokeColor=none;fillColor=none;align=center;verticalAlign=middle;whiteSpace=wrap;rounded=0;" vertex="1" parent="1">
                    <mxGeometry x="60" y="690" width="40" height="20" as="geometry"/>
                </mxCell>
            </root>
        </mxGraphModel>
    </diagram>
</mxfile>